<?xml version="1.0" encoding="UTF-8"?>
<!DOCTYPE svg PUBLIC "-//W3C//DTD SVG 1.1//EN" "http://www.w3.org/Graphics/SVG/1.1/DTD/svg11.dtd">
<svg xmlns="http://www.w3.org/2000/svg" version="1.1" width="512px" height="512px" style="shape-rendering:geometricPrecision; text-rendering:geometricPrecision; image-rendering:optimizeQuality; fill-rule:evenodd; clip-rule:evenodd" xmlns:xlink="http://www.w3.org/1999/xlink">
<g><path style="opacity:0.114" fill="#000000" d="M 89.5,113.5 C 200.167,113.333 310.834,113.5 421.5,114C 440.623,112.063 457.123,117.563 471,130.5C 478.75,140.079 482.75,151.079 483,163.5C 483.667,230.167 483.667,296.833 483,363.5C 481.48,391.351 466.98,407.518 439.5,412C 433.5,412.333 427.5,412.667 421.5,413C 310.833,413.667 200.167,413.667 89.5,413C 70.3768,414.937 53.8768,409.437 40,396.5C 32.25,386.921 28.25,375.921 28,363.5C 27.0301,293.812 27.3634,224.145 29,154.5C 32.944,133.889 45.1107,121.056 65.5,116C 73.6369,115.055 81.6369,114.222 89.5,113.5 Z"/></g>
<g><path style="opacity:0.998" fill="#727272" d="M 468.5,249.5 C 467.041,249.567 465.708,249.234 464.5,248.5C 464.667,216.832 464.5,185.165 464,153.5C 459.62,137.786 449.453,128.286 433.5,125C 314.833,124.333 196.167,124.333 77.5,125C 61.547,128.286 51.3803,137.786 47,153.5C 46.5001,167.496 46.3334,181.496 46.5,195.5C 46.5,208.167 46.5,220.833 46.5,233.5C 45.0413,233.567 43.7079,233.234 42.5,232.5C 42.0338,204.449 42.5338,176.449 44,148.5C 48.9,135.267 58.0667,126.434 71.5,122C 192.465,120.343 313.465,120.009 434.5,121C 450.539,124.04 461.372,133.207 467,148.5C 468.472,182.118 468.972,215.784 468.5,249.5 Z"/></g>
<g><path style="opacity:1" fill="#fbfbfb" d="M 464.5,248.5 C 464.5,269.167 464.5,289.833 464.5,310.5C 449.82,305.773 435.153,300.94 420.5,296C 419.244,295.583 418.577,294.75 418.5,293.5C 432.771,252.018 425.104,215.185 395.5,183C 362.356,153.835 325.022,146.835 283.5,162C 273.634,167.093 264.301,172.927 255.5,179.5C 222.932,152.822 186.932,146.988 147.5,162C 125.507,171.828 108.84,187.328 97.5,208.5C 80.6207,203.697 63.6207,199.364 46.5,195.5C 46.3334,181.496 46.5001,167.496 47,153.5C 51.3803,137.786 61.547,128.286 77.5,125C 196.167,124.333 314.833,124.333 433.5,125C 449.453,128.286 459.62,137.786 464,153.5C 464.5,185.165 464.667,216.832 464.5,248.5 Z"/></g>
<g><path style="opacity:1" fill="#d95959" d="M 255.5,179.5 C 253.107,183.402 250.107,186.902 246.5,190C 253.191,190.169 259.858,190.669 266.5,191.5C 268.711,194.756 271.045,197.922 273.5,201C 261.486,201.167 249.486,201.667 237.5,202.5C 235.274,205.619 233.607,208.952 232.5,212.5C 248.17,212.333 263.837,212.5 279.5,213C 281.235,215.637 282.568,218.47 283.5,221.5C 264.833,222.167 246.167,222.833 227.5,223.5C 226.449,226.757 225.782,230.09 225.5,233.5C 245.836,233.333 266.169,233.5 286.5,234C 287.406,235.699 287.739,237.533 287.5,239.5C 283.975,239.346 281.141,240.679 279,243.5C 278.517,242.552 278.351,241.552 278.5,240.5C 275.167,240.5 271.833,240.5 268.5,240.5C 268.737,241.791 268.404,242.791 267.5,243.5C 266.5,243.5 265.5,243.5 264.5,243.5C 264.736,246.609 264.403,249.609 263.5,252.5C 262.833,253.833 262.167,255.167 261.5,256.5C 261.92,244.087 255.92,238.254 243.5,239C 239.448,240.246 236.115,242.413 233.5,245.5C 232.07,244.463 230.403,243.796 228.5,243.5C 228.5,242.5 228.5,241.5 228.5,240.5C 226.833,240.5 225.167,240.5 223.5,240.5C 223.993,238.194 224.326,235.861 224.5,233.5C 220.833,233.5 217.167,233.5 213.5,233.5C 213.768,235.099 213.434,236.432 212.5,237.5C 211.508,237.328 210.842,237.662 210.5,238.5C 172.694,228.965 135.027,218.965 97.5,208.5C 108.84,187.328 125.507,171.828 147.5,162C 186.932,146.988 222.932,152.822 255.5,179.5 Z"/></g>
<g><path style="opacity:1" fill="#faba5b" d="M 418.5,293.5 C 417.833,293.5 417.5,293.833 417.5,294.5C 405.773,291.319 394.106,288.319 382.5,285.5C 386.422,285.931 389.922,284.931 393,282.5C 393.483,283.448 393.649,284.448 393.5,285.5C 397.167,285.5 400.833,285.5 404.5,285.5C 404.5,284.167 404.5,282.833 404.5,281.5C 405.5,281.5 406.5,281.5 407.5,281.5C 409.515,264.726 412.182,248.059 415.5,231.5C 411.893,230.511 408.226,230.177 404.5,230.5C 404.737,231.791 404.404,232.791 403.5,233.5C 402.25,233.577 401.417,234.244 401,235.5C 400.503,237.81 400.337,240.143 400.5,242.5C 391.622,237.36 384.289,239.027 378.5,247.5C 377.5,248.167 376.5,248.833 375.5,249.5C 375.895,246.314 376.895,243.314 378.5,240.5C 374.492,239.41 371.325,240.744 369,244.5C 368.51,243.207 368.343,241.873 368.5,240.5C 365.167,240.5 361.833,240.5 358.5,240.5C 358.5,241.5 358.5,242.5 358.5,243.5C 357.5,243.5 356.5,243.5 355.5,243.5C 355.5,245.5 355.5,247.5 355.5,249.5C 354.085,244.916 351.085,241.75 346.5,240C 340.083,239.13 333.749,239.464 327.5,241C 326.748,241.671 326.414,242.504 326.5,243.5C 325.07,243.421 323.736,243.754 322.5,244.5C 320.966,247.462 320.633,250.462 321.5,253.5C 326.78,252.382 332.113,252.216 337.5,253C 338.252,253.671 338.586,254.504 338.5,255.5C 332.668,255 327.668,256.666 323.5,260.5C 319.596,261.281 317.263,263.615 316.5,267.5C 316.167,267.5 315.833,267.5 315.5,267.5C 309.687,265.544 303.687,263.877 297.5,262.5C 296.161,255.181 298.161,249.181 303.5,244.5C 308.402,243.01 313.069,243.676 317.5,246.5C 318.429,245.311 318.762,243.978 318.5,242.5C 319.5,242.5 320.5,242.5 321.5,242.5C 321.724,238.821 322.058,235.154 322.5,231.5C 316.61,229.768 310.61,229.268 304.5,230C 301.135,231.344 298.135,233.177 295.5,235.5C 293.246,236.415 291.246,237.748 289.5,239.5C 288.833,239.5 288.167,239.5 287.5,239.5C 287.739,237.533 287.406,235.699 286.5,234C 266.169,233.5 245.836,233.333 225.5,233.5C 225.782,230.09 226.449,226.757 227.5,223.5C 246.167,222.833 264.833,222.167 283.5,221.5C 282.568,218.47 281.235,215.637 279.5,213C 263.837,212.5 248.17,212.333 232.5,212.5C 233.607,208.952 235.274,205.619 237.5,202.5C 249.486,201.667 261.486,201.167 273.5,201C 271.045,197.922 268.711,194.756 266.5,191.5C 259.858,190.669 253.191,190.169 246.5,190C 250.107,186.902 253.107,183.402 255.5,179.5C 264.301,172.927 273.634,167.093 283.5,162C 325.022,146.835 362.356,153.835 395.5,183C 425.104,215.185 432.771,252.018 418.5,293.5 Z"/></g>
<g><path style="opacity:1" fill="#ebebeb" d="M 46.5,195.5 C 63.6207,199.364 80.6207,203.697 97.5,208.5C 84.2211,234.163 82.0544,260.83 91,288.5C 94.5881,296.674 98.4215,304.674 102.5,312.5C 83.8944,306.298 65.2277,300.298 46.5,294.5C 46.5,274.167 46.5,253.833 46.5,233.5C 46.5,220.833 46.5,208.167 46.5,195.5 Z"/></g>
<g><path style="opacity:1" fill="#6a659b" d="M 403.5,233.5 C 403.436,237.22 402.936,240.886 402,244.5C 401.283,243.956 400.783,243.289 400.5,242.5C 400.337,240.143 400.503,237.81 401,235.5C 401.417,234.244 402.25,233.577 403.5,233.5 Z"/></g>
<g><path style="opacity:1" fill="#eceaec" d="M 228.5,243.5 C 228.821,246.577 227.821,248.91 225.5,250.5C 224.167,250.5 222.833,250.5 221.5,250.5C 221.5,251.5 221.5,252.5 221.5,253.5C 220.358,258.499 219.358,263.666 218.5,269C 218.585,270.107 218.919,271.107 219.5,272C 221.134,272.494 222.801,272.66 224.5,272.5C 225.167,272.5 225.5,272.833 225.5,273.5C 224.527,275.948 224.194,278.615 224.5,281.5C 223.209,281.263 222.209,281.596 221.5,282.5C 209.337,283.891 204.837,278.558 208,266.5C 209.285,256.789 210.785,247.122 212.5,237.5C 213.434,236.432 213.768,235.099 213.5,233.5C 217.167,233.5 220.833,233.5 224.5,233.5C 224.326,235.861 223.993,238.194 223.5,240.5C 225.167,240.5 226.833,240.5 228.5,240.5C 228.5,241.5 228.5,242.5 228.5,243.5 Z"/></g>
<g><path style="opacity:1" fill="#f3f2f3" d="M 355.5,249.5 C 353.609,258.404 352.276,267.404 351.5,276.5C 351.405,278.786 350.738,280.786 349.5,282.5C 348.432,281.566 347.099,281.232 345.5,281.5C 344.167,281.5 342.833,281.5 341.5,281.5C 341.649,280.448 341.483,279.448 341,278.5C 339.729,279.883 338.229,280.883 336.5,281.5C 335.833,281.5 335.5,281.833 335.5,282.5C 335.167,282.5 334.833,282.5 334.5,282.5C 327.07,284.366 322.403,281.7 320.5,274.5C 319.803,269.36 320.803,264.693 323.5,260.5C 327.668,256.666 332.668,255 338.5,255.5C 340.167,255.5 341.833,255.5 343.5,255.5C 343.739,253.533 343.406,251.699 342.5,250C 337.113,249.216 331.78,249.382 326.5,250.5C 325.425,248.189 325.425,245.856 326.5,243.5C 326.414,242.504 326.748,241.671 327.5,241C 333.749,239.464 340.083,239.13 346.5,240C 351.085,241.75 354.085,244.916 355.5,249.5 Z"/></g>
<g><path style="opacity:1" fill="#676299" d="M 318.5,242.5 C 318.762,243.978 318.429,245.311 317.5,246.5C 313.069,243.676 308.402,243.01 303.5,244.5C 303.062,244.565 302.728,244.399 302.5,244C 307.569,239.993 312.903,239.493 318.5,242.5 Z"/></g>
<g><path style="opacity:1" fill="#f5f4f4" d="M 375.5,249.5 C 373.965,251.052 372.131,252.385 370,253.5C 369.209,254.745 368.709,256.078 368.5,257.5C 365.89,264.892 364.556,272.558 364.5,280.5C 363.167,281.167 361.833,281.833 360.5,282.5C 358.393,281.532 356.059,281.198 353.5,281.5C 354.387,268.731 356.054,256.064 358.5,243.5C 358.5,242.5 358.5,241.5 358.5,240.5C 361.833,240.5 365.167,240.5 368.5,240.5C 368.343,241.873 368.51,243.207 369,244.5C 371.325,240.744 374.492,239.41 378.5,240.5C 376.895,243.314 375.895,246.314 375.5,249.5 Z"/></g>
<g><path style="opacity:1" fill="#6a659d" d="M 295.5,235.5 C 287.693,243.931 284.693,253.931 286.5,265.5C 285.532,263.393 285.198,261.059 285.5,258.5C 284.5,258.5 283.5,258.5 282.5,258.5C 281.817,256.824 280.483,256.157 278.5,256.5C 278.731,253.1 280.564,251.1 284,250.5C 284.434,245.97 286.267,242.303 289.5,239.5C 291.246,237.748 293.246,236.415 295.5,235.5 Z"/></g>
<g><path style="opacity:1" fill="#685b93" d="M 267.5,243.5 C 267.149,247.684 266.482,251.684 265.5,255.5C 265.5,254.167 264.833,253.5 263.5,253.5C 263.5,253.167 263.5,252.833 263.5,252.5C 264.403,249.609 264.736,246.609 264.5,243.5C 265.5,243.5 266.5,243.5 267.5,243.5 Z"/></g>
<g><path style="opacity:1" fill="#726fa2" d="M 358.5,243.5 C 356.054,256.064 354.387,268.731 353.5,281.5C 356.059,281.198 358.393,281.532 360.5,282.5C 357.833,282.5 355.167,282.5 352.5,282.5C 352.795,280.265 352.461,278.265 351.5,276.5C 352.276,267.404 353.609,258.404 355.5,249.5C 355.5,247.5 355.5,245.5 355.5,243.5C 356.5,243.5 357.5,243.5 358.5,243.5 Z"/></g>
<g><path style="opacity:1" fill="#eeeced" d="M 261.5,256.5 C 261.977,259.917 260.977,262.584 258.5,264.5C 251.833,264.5 245.167,264.5 238.5,264.5C 238.5,265.833 238.5,267.167 238.5,268.5C 240.577,272.123 243.744,273.79 248,273.5C 251.836,273.079 255.503,272.079 259,270.5C 258.959,273.804 258.626,277.137 258,280.5C 257.005,281.066 256.172,281.733 255.5,282.5C 231.687,285.014 223.021,274.681 229.5,251.5C 230.415,249.246 231.748,247.246 233.5,245.5C 236.115,242.413 239.448,240.246 243.5,239C 255.92,238.254 261.92,244.087 261.5,256.5 Z"/></g>
<g><path style="opacity:1" fill="#f7f6f6" d="M 404.5,281.5 C 402.167,281.5 399.833,281.5 397.5,281.5C 397.649,280.448 397.483,279.448 397,278.5C 389.949,284.142 383.282,283.809 377,277.5C 372.092,267.192 372.592,257.192 378.5,247.5C 384.289,239.027 391.622,237.36 400.5,242.5C 400.783,243.289 401.283,243.956 402,244.5C 402.936,240.886 403.436,237.22 403.5,233.5C 404.404,232.791 404.737,231.791 404.5,230.5C 408.226,230.177 411.893,230.511 415.5,231.5C 412.182,248.059 409.515,264.726 407.5,281.5C 406.5,281.5 405.5,281.5 404.5,281.5 Z"/></g>
<g><path style="opacity:1" fill="#625f98" d="M 326.5,243.5 C 325.425,245.856 325.425,248.189 326.5,250.5C 331.78,249.382 337.113,249.216 342.5,250C 343.406,251.699 343.739,253.533 343.5,255.5C 341.833,255.5 340.167,255.5 338.5,255.5C 338.586,254.504 338.252,253.671 337.5,253C 332.113,252.216 326.78,252.382 321.5,253.5C 320.633,250.462 320.966,247.462 322.5,244.5C 323.736,243.754 325.07,243.421 326.5,243.5 Z"/></g>
<g><path style="opacity:1" fill="#c11916" d="M 228.5,243.5 C 230.403,243.796 232.07,244.463 233.5,245.5C 231.748,247.246 230.415,249.246 229.5,251.5C 225.199,257.71 223.532,264.71 224.5,272.5C 222.801,272.66 221.134,272.494 219.5,272C 218.919,271.107 218.585,270.107 218.5,269C 219.358,263.666 220.358,258.499 221.5,253.5C 222.833,253.5 224.167,253.5 225.5,253.5C 225.5,252.5 225.5,251.5 225.5,250.5C 227.821,248.91 228.821,246.577 228.5,243.5 Z"/></g>
<g><path style="opacity:1" fill="#eceaed" d="M 287.5,239.5 C 288.167,239.5 288.833,239.5 289.5,239.5C 286.267,242.303 284.434,245.97 284,250.5C 280.564,251.1 278.731,253.1 278.5,256.5C 277.442,257.6 276.608,258.934 276,260.5C 274.741,266.793 273.741,273.127 273,279.5C 272.764,281.119 271.931,282.119 270.5,282.5C 267.5,282.5 264.5,282.5 261.5,282.5C 262.508,273.45 263.842,264.45 265.5,255.5C 266.482,251.684 267.149,247.684 267.5,243.5C 268.404,242.791 268.737,241.791 268.5,240.5C 271.833,240.5 275.167,240.5 278.5,240.5C 278.351,241.552 278.517,242.552 279,243.5C 281.141,240.679 283.975,239.346 287.5,239.5 Z"/></g>
<g><path style="opacity:1" fill="#f1f0ef" d="M 318.5,242.5 C 312.903,239.493 307.569,239.993 302.5,244C 302.728,244.399 303.062,244.565 303.5,244.5C 298.161,249.181 296.161,255.181 297.5,262.5C 300.227,272.193 306.227,274.86 315.5,270.5C 315.553,274.055 315.887,277.722 316.5,281.5C 314.901,281.232 313.568,281.566 312.5,282.5C 298.055,285.296 289.388,279.629 286.5,265.5C 284.693,253.931 287.693,243.931 295.5,235.5C 298.135,233.177 301.135,231.344 304.5,230C 310.61,229.268 316.61,229.768 322.5,231.5C 322.058,235.154 321.724,238.821 321.5,242.5C 320.5,242.5 319.5,242.5 318.5,242.5 Z"/></g>
<g><path style="opacity:1" fill="#bd0a08" d="M 97.5,208.5 C 135.027,218.965 172.694,228.965 210.5,238.5C 208.82,247.26 207.154,255.926 205.5,264.5C 203.586,260.092 200.252,257.259 195.5,256C 194.177,255.184 193.511,254.017 193.5,252.5C 196.833,252.5 200.167,252.5 203.5,252.5C 203.5,251.5 203.5,250.5 203.5,249.5C 204.5,249.5 205.5,249.5 206.5,249.5C 207.207,246.214 207.54,242.881 207.5,239.5C 201.824,239.334 196.157,239.501 190.5,240C 186.677,241.324 184.011,243.824 182.5,247.5C 181.5,248.167 180.5,248.833 179.5,249.5C 178.727,244.227 175.727,241.06 170.5,240C 164.415,239.139 158.415,239.473 152.5,241C 151.695,242.113 151.028,243.279 150.5,244.5C 149.069,244.881 148.236,245.881 148,247.5C 147.192,249.579 147.359,251.579 148.5,253.5C 153.78,252.382 159.113,252.216 164.5,253C 165.252,253.671 165.586,254.504 165.5,255.5C 157.24,254.47 150.573,257.136 145.5,263.5C 144.143,264.59 143.143,265.924 142.5,267.5C 144.085,255.151 145.752,242.818 147.5,230.5C 141.833,230.5 136.167,230.5 130.5,230.5C 130.737,231.791 130.404,232.791 129.5,233.5C 128.25,233.577 127.417,234.244 127,235.5C 125.099,241.713 122.932,247.713 120.5,253.5C 120.5,245.833 120.5,238.167 120.5,230.5C 114.833,230.5 109.167,230.5 103.5,230.5C 103.5,231.5 103.5,232.5 103.5,233.5C 102.5,233.5 101.5,233.5 100.5,233.5C 98.1528,250.887 95.4861,268.22 92.5,285.5C 96.1667,285.5 99.8333,285.5 103.5,285.5C 103.5,284.5 103.5,283.5 103.5,282.5C 104.496,282.586 105.329,282.252 106,281.5C 107.428,273.017 108.928,264.683 110.5,256.5C 110.5,266.167 110.5,275.833 110.5,285.5C 113.247,285.813 115.914,285.48 118.5,284.5C 118.863,283.817 119.196,283.15 119.5,282.5C 123.554,274.006 127.221,265.34 130.5,256.5C 129.078,266.215 127.411,275.882 125.5,285.5C 129.182,285.665 132.848,285.499 136.5,285C 137.252,284.329 137.586,283.496 137.5,282.5C 138.492,282.672 139.158,282.338 139.5,281.5C 140.167,278.833 140.833,276.167 141.5,273.5C 141.945,283.903 147.278,287.736 157.5,285C 159.081,284.293 160.581,283.46 162,282.5C 162.483,283.448 162.649,284.448 162.5,285.5C 165.833,285.5 169.167,285.5 172.5,285.5C 172.5,284.167 172.5,282.833 172.5,281.5C 173.167,281.5 173.833,281.5 174.5,281.5C 174.33,282.822 174.663,283.989 175.5,285C 181.5,285.667 187.5,285.667 193.5,285C 196.547,284.484 198.88,282.984 200.5,280.5C 202.167,279.5 203.5,278.167 204.5,276.5C 205.86,285.517 210.86,288.351 219.5,285C 220.756,284.583 221.423,283.75 221.5,282.5C 222.209,281.596 223.209,281.263 224.5,281.5C 224.194,278.615 224.527,275.948 225.5,273.5C 226.851,279.02 230.184,282.853 235.5,285C 241.167,285.667 246.833,285.667 252.5,285C 254.119,284.764 255.119,283.931 255.5,282.5C 256.172,281.733 257.005,281.066 258,280.5C 258.626,277.137 258.959,273.804 259,270.5C 255.503,272.079 251.836,273.079 248,273.5C 243.744,273.79 240.577,272.123 238.5,268.5C 245.167,268.5 251.833,268.5 258.5,268.5C 258.5,267.167 258.5,265.833 258.5,264.5C 260.977,262.584 261.977,259.917 261.5,256.5C 262.167,255.167 262.833,253.833 263.5,252.5C 263.5,252.833 263.5,253.167 263.5,253.5C 261.833,264.17 260.166,274.837 258.5,285.5C 262.5,285.5 266.5,285.5 270.5,285.5C 270.5,284.5 270.5,283.5 270.5,282.5C 271.931,282.119 272.764,281.119 273,279.5C 273.741,273.127 274.741,266.793 276,260.5C 276.608,258.934 277.442,257.6 278.5,256.5C 280.483,256.157 281.817,256.824 282.5,258.5C 281.513,266.217 283.18,273.217 287.5,279.5C 285.578,281.793 284.245,284.459 283.5,287.5C 264.821,287.167 246.155,287.5 227.5,288.5C 227.624,289.107 227.957,289.44 228.5,289.5C 229.487,292.146 230.487,294.812 231.5,297.5C 247.5,298.167 263.5,298.833 279.5,299.5C 277.625,302.751 275.625,305.918 273.5,309C 261.819,309.167 250.152,309.667 238.5,310.5C 240.5,313.167 242.5,315.833 244.5,318.5C 251.811,319.331 259.144,319.831 266.5,320C 262.63,323.702 258.963,327.536 255.5,331.5C 245.451,340.197 234.118,346.864 221.5,351.5C 172.872,365.513 133.205,352.513 102.5,312.5C 98.4215,304.674 94.5881,296.674 91,288.5C 82.0544,260.83 84.2211,234.163 97.5,208.5 Z"/></g>
<g><path style="opacity:1" fill="#24085c" d="M 103.5,233.5 C 100.51,249.773 97.8434,266.107 95.5,282.5C 98.1667,282.5 100.833,282.5 103.5,282.5C 103.5,283.5 103.5,284.5 103.5,285.5C 99.8333,285.5 96.1667,285.5 92.5,285.5C 95.4861,268.22 98.1528,250.887 100.5,233.5C 101.5,233.5 102.5,233.5 103.5,233.5 Z"/></g>
<g><path style="opacity:1" fill="#e9e7e8" d="M 179.5,249.5 C 179.276,253.179 178.942,256.846 178.5,260.5C 177.111,265.269 176.444,270.269 176.5,275.5C 175.833,277.5 175.167,279.5 174.5,281.5C 173.833,281.5 173.167,281.5 172.5,281.5C 169.534,281.89 166.868,281.223 164.5,279.5C 148.556,285.899 142.222,280.565 145.5,263.5C 150.573,257.136 157.24,254.47 165.5,255.5C 166.5,255.5 167.5,255.5 168.5,255.5C 168.739,253.533 168.406,251.699 167.5,250C 161.916,249.194 156.416,249.361 151,250.5C 150.505,248.527 150.338,246.527 150.5,244.5C 151.028,243.279 151.695,242.113 152.5,241C 158.415,239.473 164.415,239.139 170.5,240C 175.727,241.06 178.727,244.227 179.5,249.5 Z"/></g>
<g><path style="opacity:1" fill="#e7e5e7" d="M 120.5,253.5 C 120.337,255.857 120.503,258.19 121,260.5C 123.992,251.528 126.825,242.528 129.5,233.5C 130.404,232.791 130.737,231.791 130.5,230.5C 136.167,230.5 141.833,230.5 147.5,230.5C 145.752,242.818 144.085,255.151 142.5,267.5C 141.539,269.265 141.205,271.265 141.5,273.5C 140.833,276.167 140.167,278.833 139.5,281.5C 136.167,281.5 132.833,281.5 129.5,281.5C 129.5,280.5 129.5,279.5 129.5,278.5C 130.67,269.143 132.003,259.81 133.5,250.5C 134.622,248.712 134.789,246.712 134,244.5C 133.392,246.154 132.892,247.821 132.5,249.5C 131.434,251.701 130.767,254.035 130.5,256.5C 127.221,265.34 123.554,274.006 119.5,282.5C 117.5,282.5 115.5,282.5 113.5,282.5C 113.091,270.499 112.591,258.499 112,246.5C 110.957,249.757 110.457,253.09 110.5,256.5C 108.928,264.683 107.428,273.017 106,281.5C 105.329,282.252 104.496,282.586 103.5,282.5C 100.833,282.5 98.1667,282.5 95.5,282.5C 97.8434,266.107 100.51,249.773 103.5,233.5C 103.5,232.5 103.5,231.5 103.5,230.5C 109.167,230.5 114.833,230.5 120.5,230.5C 120.5,238.167 120.5,245.833 120.5,253.5 Z"/></g>
<g><path style="opacity:1" fill="#2c1060" d="M 129.5,233.5 C 126.825,242.528 123.992,251.528 121,260.5C 120.503,258.19 120.337,255.857 120.5,253.5C 122.932,247.713 125.099,241.713 127,235.5C 127.417,234.244 128.25,233.577 129.5,233.5 Z"/></g>
<g><path style="opacity:1" fill="#1e1267" d="M 182.5,247.5 C 181.099,251.543 181.266,255.543 183,259.5C 186.717,262.885 190.717,265.885 195,268.5C 195.91,270.945 195.076,272.278 192.5,272.5C 190.422,269.949 187.756,268.116 184.5,267C 182.266,264.937 180.266,262.771 178.5,260.5C 178.942,256.846 179.276,253.179 179.5,249.5C 180.5,248.833 181.5,248.167 182.5,247.5 Z"/></g>
<g><path style="opacity:1" fill="#7b7aa9" d="M 133.5,250.5 C 133.5,249.833 133.167,249.5 132.5,249.5C 132.892,247.821 133.392,246.154 134,244.5C 134.789,246.712 134.622,248.712 133.5,250.5 Z"/></g>
<g><path style="opacity:1" fill="#211165" d="M 150.5,244.5 C 150.338,246.527 150.505,248.527 151,250.5C 156.416,249.361 161.916,249.194 167.5,250C 168.406,251.699 168.739,253.533 168.5,255.5C 167.5,255.5 166.5,255.5 165.5,255.5C 165.586,254.504 165.252,253.671 164.5,253C 159.113,252.216 153.78,252.382 148.5,253.5C 147.359,251.579 147.192,249.579 148,247.5C 148.236,245.881 149.069,244.881 150.5,244.5 Z"/></g>
<g><path style="opacity:1" fill="#ebe9ea" d="M 203.5,249.5 C 200.482,249.335 197.482,249.502 194.5,250C 193.748,250.671 193.414,251.504 193.5,252.5C 193.511,254.017 194.177,255.184 195.5,256C 200.252,257.259 203.586,260.092 205.5,264.5C 205.693,268.566 205.36,272.566 204.5,276.5C 203.5,278.167 202.167,279.5 200.5,280.5C 193.291,282.409 185.958,282.909 178.5,282C 177.577,279.959 177.244,277.792 177.5,275.5C 178.404,274.791 178.737,273.791 178.5,272.5C 183.321,273.597 187.987,273.597 192.5,272.5C 195.076,272.278 195.91,270.945 195,268.5C 190.717,265.885 186.717,262.885 183,259.5C 181.266,255.543 181.099,251.543 182.5,247.5C 184.011,243.824 186.677,241.324 190.5,240C 196.157,239.501 201.824,239.334 207.5,239.5C 207.54,242.881 207.207,246.214 206.5,249.5C 205.5,249.5 204.5,249.5 203.5,249.5 Z"/></g>
<g><path style="opacity:1" fill="#1d0c61" d="M 119.5,282.5 C 119.196,283.15 118.863,283.817 118.5,284.5C 115.914,285.48 113.247,285.813 110.5,285.5C 110.5,275.833 110.5,266.167 110.5,256.5C 110.457,253.09 110.957,249.757 112,246.5C 112.591,258.499 113.091,270.499 113.5,282.5C 115.5,282.5 117.5,282.5 119.5,282.5 Z"/></g>
<g><path style="opacity:1" fill="#666197" d="M 378.5,247.5 C 372.592,257.192 372.092,267.192 377,277.5C 383.282,283.809 389.949,284.142 397,278.5C 397.483,279.448 397.649,280.448 397.5,281.5C 399.833,281.5 402.167,281.5 404.5,281.5C 404.5,282.833 404.5,284.167 404.5,285.5C 400.833,285.5 397.167,285.5 393.5,285.5C 393.649,284.448 393.483,283.448 393,282.5C 389.922,284.931 386.422,285.931 382.5,285.5C 379.794,285.312 377.461,284.312 375.5,282.5C 370.129,274.563 369.129,266.063 372.5,257C 371.072,256.421 369.738,256.588 368.5,257.5C 368.709,256.078 369.209,254.745 370,253.5C 372.131,252.385 373.965,251.052 375.5,249.5C 376.5,248.833 377.5,248.167 378.5,247.5 Z"/></g>
<g><path style="opacity:1" fill="#2b1364" d="M 212.5,237.5 C 210.785,247.122 209.285,256.789 208,266.5C 204.837,278.558 209.337,283.891 221.5,282.5C 221.423,283.75 220.756,284.583 219.5,285C 210.86,288.351 205.86,285.517 204.5,276.5C 205.36,272.566 205.693,268.566 205.5,264.5C 207.154,255.926 208.82,247.26 210.5,238.5C 210.842,237.662 211.508,237.328 212.5,237.5 Z"/></g>
<g><path style="opacity:1" fill="#5d5d5d" d="M 42.5,232.5 C 43.7079,233.234 45.0413,233.567 46.5,233.5C 46.5,253.833 46.5,274.167 46.5,294.5C 46.3334,314.503 46.5,334.503 47,354.5C 50.046,371.88 60.2127,382.38 77.5,386C 196.334,386.833 315.001,386.666 433.5,385.5C 445.945,383.377 454.945,376.71 460.5,365.5C 462.359,362.088 463.526,358.422 464,354.5C 464.5,339.837 464.667,325.17 464.5,310.5C 464.5,289.833 464.5,269.167 464.5,248.5C 465.708,249.234 467.041,249.567 468.5,249.5C 468.667,285.502 468.5,321.502 468,357.5C 463.612,375.888 452.112,386.721 433.5,390C 314.833,390.667 196.167,390.667 77.5,390C 58.8915,386.725 47.3915,375.892 43,357.5C 42.5,315.835 42.3333,274.168 42.5,232.5 Z"/></g>
<g><path style="opacity:1" fill="#e9e9e9" d="M 255.5,331.5 C 296.188,363.501 338.521,365.834 382.5,338.5C 408.281,347.872 434.281,356.872 460.5,365.5C 454.945,376.71 445.945,383.377 433.5,385.5C 396.165,385.667 358.832,385.5 321.5,385C 288.021,373.896 254.688,362.729 221.5,351.5C 234.118,346.864 245.451,340.197 255.5,331.5 Z"/></g>
<g><path style="opacity:1" fill="#f0efef" d="M 418.5,293.5 C 418.577,294.75 419.244,295.583 420.5,296C 435.153,300.94 449.82,305.773 464.5,310.5C 464.667,325.17 464.5,339.837 464,354.5C 463.526,358.422 462.359,362.088 460.5,365.5C 434.281,356.872 408.281,347.872 382.5,338.5C 398.439,327.319 410.106,312.652 417.5,294.5C 417.5,293.833 417.833,293.5 418.5,293.5 Z"/></g>
<g><path style="opacity:1" fill="#e3e3e3" d="M 46.5,294.5 C 65.2277,300.298 83.8944,306.298 102.5,312.5C 133.205,352.513 172.872,365.513 221.5,351.5C 254.688,362.729 288.021,373.896 321.5,385C 358.832,385.5 396.165,385.667 433.5,385.5C 315.001,386.666 196.334,386.833 77.5,386C 60.2127,382.38 50.046,371.88 47,354.5C 46.5,334.503 46.3334,314.503 46.5,294.5 Z"/></g>
<g><path style="opacity:1" fill="#d95509" d="M 283.5,287.5 C 265.167,288.167 246.833,288.833 228.5,289.5C 227.957,289.44 227.624,289.107 227.5,288.5C 246.155,287.5 264.821,287.167 283.5,287.5 Z"/></g>
<g><path style="opacity:1" fill="#2f1361" d="M 145.5,263.5 C 142.222,280.565 148.556,285.899 164.5,279.5C 166.868,281.223 169.534,281.89 172.5,281.5C 172.5,282.833 172.5,284.167 172.5,285.5C 169.167,285.5 165.833,285.5 162.5,285.5C 162.649,284.448 162.483,283.448 162,282.5C 160.581,283.46 159.081,284.293 157.5,285C 147.278,287.736 141.945,283.903 141.5,273.5C 141.205,271.265 141.539,269.265 142.5,267.5C 143.143,265.924 144.143,264.59 145.5,263.5 Z"/></g>
<g><path style="opacity:1" fill="#82729c" d="M 129.5,278.5 C 129.5,279.5 129.5,280.5 129.5,281.5C 132.833,281.5 136.167,281.5 139.5,281.5C 139.158,282.338 138.492,282.672 137.5,282.5C 134.5,282.5 131.5,282.5 128.5,282.5C 128.232,280.901 128.566,279.568 129.5,278.5 Z"/></g>
<g><path style="opacity:1" fill="#261e73" d="M 345.5,281.5 C 345.5,282.5 345.5,283.5 345.5,284.5C 342.5,284.5 339.5,284.5 336.5,284.5C 336.5,283.5 336.5,282.5 336.5,281.5C 338.229,280.883 339.729,279.883 341,278.5C 341.483,279.448 341.649,280.448 341.5,281.5C 342.833,281.5 344.167,281.5 345.5,281.5 Z"/></g>
<g><path style="opacity:1" fill="#ee920b" d="M 287.5,279.5 C 293.658,285.232 300.991,287.065 309.5,285C 311.119,284.764 312.119,283.931 312.5,282.5C 313.568,281.566 314.901,281.232 316.5,281.5C 318.576,284.702 321.576,286.035 325.5,285.5C 329.052,285.864 332.052,284.864 334.5,282.5C 334.833,282.5 335.167,282.5 335.5,282.5C 335.5,283.5 335.5,284.5 335.5,285.5C 339.042,285.813 342.375,285.479 345.5,284.5C 345.5,283.5 345.5,282.5 345.5,281.5C 347.099,281.232 348.432,281.566 349.5,282.5C 349.5,283.5 349.5,284.5 349.5,285.5C 353.167,285.5 356.833,285.5 360.5,285.5C 360.5,284.5 360.5,283.5 360.5,282.5C 361.833,281.833 363.167,281.167 364.5,280.5C 368.101,281.463 371.767,282.13 375.5,282.5C 377.461,284.312 379.794,285.312 382.5,285.5C 394.106,288.319 405.773,291.319 417.5,294.5C 410.106,312.652 398.439,327.319 382.5,338.5C 338.521,365.834 296.188,363.501 255.5,331.5C 258.963,327.536 262.63,323.702 266.5,320C 259.144,319.831 251.811,319.331 244.5,318.5C 242.5,315.833 240.5,313.167 238.5,310.5C 250.152,309.667 261.819,309.167 273.5,309C 275.625,305.918 277.625,302.751 279.5,299.5C 263.5,298.833 247.5,298.167 231.5,297.5C 230.487,294.812 229.487,292.146 228.5,289.5C 246.833,288.833 265.167,288.167 283.5,287.5C 284.245,284.459 285.578,281.793 287.5,279.5 Z"/></g>
<g><path style="opacity:1" fill="#694445" d="M 336.5,281.5 C 336.5,282.5 336.5,283.5 336.5,284.5C 339.5,284.5 342.5,284.5 345.5,284.5C 342.375,285.479 339.042,285.813 335.5,285.5C 335.5,284.5 335.5,283.5 335.5,282.5C 335.5,281.833 335.833,281.5 336.5,281.5 Z"/></g>
<g><path style="opacity:1" fill="#1f0e62" d="M 176.5,275.5 C 176.833,275.5 177.167,275.5 177.5,275.5C 177.244,277.792 177.577,279.959 178.5,282C 185.958,282.909 193.291,282.409 200.5,280.5C 198.88,282.984 196.547,284.484 193.5,285C 187.5,285.667 181.5,285.667 175.5,285C 174.663,283.989 174.33,282.822 174.5,281.5C 175.167,279.5 175.833,277.5 176.5,275.5 Z"/></g>
<g><path style="opacity:1" fill="#251765" d="M 351.5,276.5 C 352.461,278.265 352.795,280.265 352.5,282.5C 355.167,282.5 357.833,282.5 360.5,282.5C 360.5,283.5 360.5,284.5 360.5,285.5C 356.833,285.5 353.167,285.5 349.5,285.5C 349.5,284.5 349.5,283.5 349.5,282.5C 350.738,280.786 351.405,278.786 351.5,276.5 Z"/></g>
<g><path style="opacity:1" fill="#1f1469" d="M 282.5,258.5 C 283.5,258.5 284.5,258.5 285.5,258.5C 285.198,261.059 285.532,263.393 286.5,265.5C 289.388,279.629 298.055,285.296 312.5,282.5C 312.119,283.931 311.119,284.764 309.5,285C 300.991,287.065 293.658,285.232 287.5,279.5C 283.18,273.217 281.513,266.217 282.5,258.5 Z"/></g>
<g><path style="opacity:1" fill="#f4b65b" d="M 375.5,282.5 C 371.767,282.13 368.101,281.463 364.5,280.5C 364.556,272.558 365.89,264.892 368.5,257.5C 369.738,256.588 371.072,256.421 372.5,257C 369.129,266.063 370.129,274.563 375.5,282.5 Z"/></g>
<g><path style="opacity:1" fill="#f1b053" d="M 331.5,266.5 C 333.167,266.5 334.833,266.5 336.5,266.5C 336.326,268.861 335.993,271.194 335.5,273.5C 330.813,273.084 329.479,270.751 331.5,266.5 Z"/></g>
<g><path style="opacity:1" fill="#1c156b" d="M 315.5,267.5 C 315.833,267.5 316.167,267.5 316.5,267.5C 317.5,267.5 318.5,267.5 319.5,267.5C 319.198,270.059 319.532,272.393 320.5,274.5C 322.403,281.7 327.07,284.366 334.5,282.5C 332.052,284.864 329.052,285.864 325.5,285.5C 321.576,286.035 318.576,284.702 316.5,281.5C 315.887,277.722 315.553,274.055 315.5,270.5C 315.5,269.5 315.5,268.5 315.5,267.5 Z"/></g>
<g><path style="opacity:1" fill="#bb1211" d="M 162.5,272.5 C 157.352,274.906 155.018,273.239 155.5,267.5C 158.096,266.735 160.763,266.401 163.5,266.5C 163.483,268.565 163.15,270.565 162.5,272.5 Z"/></g>
<g><path style="opacity:1" fill="#2d0a5d" d="M 258.5,264.5 C 258.5,265.833 258.5,267.167 258.5,268.5C 251.833,268.5 245.167,268.5 238.5,268.5C 238.5,267.167 238.5,265.833 238.5,264.5C 245.167,264.5 251.833,264.5 258.5,264.5 Z"/></g>
<g><path style="opacity:1" fill="#5e5c99" d="M 335.5,273.5 C 335.993,271.194 336.326,268.861 336.5,266.5C 334.833,266.5 333.167,266.5 331.5,266.5C 331.953,265.542 332.619,264.708 333.5,264C 336.482,263.502 339.482,263.335 342.5,263.5C 342.471,268.517 340.138,271.851 335.5,273.5 Z"/></g>
<g><path style="opacity:1" fill="#646199" d="M 323.5,260.5 C 320.803,264.693 319.803,269.36 320.5,274.5C 319.532,272.393 319.198,270.059 319.5,267.5C 318.5,267.5 317.5,267.5 316.5,267.5C 317.263,263.615 319.596,261.281 323.5,260.5 Z"/></g>
<g><path style="opacity:1" fill="#f1991a" d="M 297.5,262.5 C 303.687,263.877 309.687,265.544 315.5,267.5C 315.5,268.5 315.5,269.5 315.5,270.5C 306.227,274.86 300.227,272.193 297.5,262.5 Z"/></g>
<g><path style="opacity:1" fill="#1d1066" d="M 162.5,272.5 C 163.15,270.565 163.483,268.565 163.5,266.5C 160.763,266.401 158.096,266.735 155.5,267.5C 155.944,265.887 156.944,264.72 158.5,264C 161.146,263.503 163.813,263.336 166.5,263.5C 166.691,267.288 165.358,270.288 162.5,272.5 Z"/></g>
<g><path style="opacity:1" fill="#2b0e5f" d="M 263.5,253.5 C 264.833,253.5 265.5,254.167 265.5,255.5C 263.842,264.45 262.508,273.45 261.5,282.5C 264.5,282.5 267.5,282.5 270.5,282.5C 270.5,283.5 270.5,284.5 270.5,285.5C 266.5,285.5 262.5,285.5 258.5,285.5C 260.166,274.837 261.833,264.17 263.5,253.5 Z"/></g>
<g><path style="opacity:1" fill="#280d5e" d="M 132.5,249.5 C 133.167,249.5 133.5,249.833 133.5,250.5C 132.003,259.81 130.67,269.143 129.5,278.5C 128.566,279.568 128.232,280.901 128.5,282.5C 131.5,282.5 134.5,282.5 137.5,282.5C 137.586,283.496 137.252,284.329 136.5,285C 132.848,285.499 129.182,285.665 125.5,285.5C 127.411,275.882 129.078,266.215 130.5,256.5C 130.767,254.035 131.434,251.701 132.5,249.5 Z"/></g>
<g><path style="opacity:1" fill="#be1f1a" d="M 178.5,260.5 C 180.266,262.771 182.266,264.937 184.5,267C 187.756,268.116 190.422,269.949 192.5,272.5C 187.987,273.597 183.321,273.597 178.5,272.5C 178.737,273.791 178.404,274.791 177.5,275.5C 177.167,275.5 176.833,275.5 176.5,275.5C 176.444,270.269 177.111,265.269 178.5,260.5 Z"/></g>
<g><path style="opacity:1" fill="#241064" d="M 229.5,251.5 C 223.021,274.681 231.687,285.014 255.5,282.5C 255.119,283.931 254.119,284.764 252.5,285C 246.833,285.667 241.167,285.667 235.5,285C 230.184,282.853 226.851,279.02 225.5,273.5C 225.5,272.833 225.167,272.5 224.5,272.5C 223.532,264.71 225.199,257.71 229.5,251.5 Z"/></g>
<g><path style="opacity:1" fill="#f7b85b" d="M 387.5,253.5 C 394.519,252.023 397.519,254.856 396.5,262C 396.375,264.551 396.042,267.051 395.5,269.5C 388.416,273.656 385.082,271.49 385.5,263C 385.422,259.636 386.089,256.47 387.5,253.5 Z"/></g>
<g><path style="opacity:1" fill="#c42520" d="M 240.5,252.5 C 242.924,252.192 245.257,252.526 247.5,253.5C 248.127,254.417 248.461,255.417 248.5,256.5C 245.5,256.5 242.5,256.5 239.5,256.5C 239.433,255.041 239.766,253.708 240.5,252.5 Z"/></g>
<g><path style="opacity:1" fill="#6d689b" d="M 395.5,269.5 C 396.042,267.051 396.375,264.551 396.5,262C 397.519,254.856 394.519,252.023 387.5,253.5C 390.38,249.29 393.88,248.623 398,251.5C 399.504,255.039 399.837,258.705 399,262.5C 398.861,265.445 397.694,267.779 395.5,269.5 Z"/></g>
<g><path style="opacity:1" fill="#0c0c68" d="M 225.5,250.5 C 225.5,251.5 225.5,252.5 225.5,253.5C 224.167,253.5 222.833,253.5 221.5,253.5C 221.5,252.5 221.5,251.5 221.5,250.5C 222.833,250.5 224.167,250.5 225.5,250.5 Z"/></g>
<g><path style="opacity:1" fill="#361c6b" d="M 248.5,256.5 C 248.461,255.417 248.127,254.417 247.5,253.5C 245.257,252.526 242.924,252.192 240.5,252.5C 243.602,247.644 247.102,247.311 251,251.5C 251.494,253.134 251.66,254.801 251.5,256.5C 250.5,256.5 249.5,256.5 248.5,256.5 Z"/></g>
<g><path style="opacity:1" fill="#150d65" d="M 203.5,249.5 C 203.5,250.5 203.5,251.5 203.5,252.5C 200.167,252.5 196.833,252.5 193.5,252.5C 193.414,251.504 193.748,250.671 194.5,250C 197.482,249.502 200.482,249.335 203.5,249.5 Z"/></g>
</svg>
