<?xml version="1.0" encoding="UTF-8"?>
<!DOCTYPE svg PUBLIC "-//W3C//DTD SVG 1.1//EN" "http://www.w3.org/Graphics/SVG/1.1/DTD/svg11.dtd">
<svg xmlns="http://www.w3.org/2000/svg" version="1.1" width="2400px" height="2400px" style="shape-rendering:geometricPrecision; text-rendering:geometricPrecision; image-rendering:optimizeQuality; fill-rule:evenodd; clip-rule:evenodd" xmlns:xlink="http://www.w3.org/1999/xlink">
<g><path style="opacity:0.992" fill="#1e5b99" d="M 104.5,462.5 C 834.5,462.5 1564.5,462.5 2294.5,462.5C 2294.5,953.833 2294.5,1445.17 2294.5,1936.5C 1564.5,1936.5 834.5,1936.5 104.5,1936.5C 104.5,1445.17 104.5,953.833 104.5,462.5 Z"/></g>
<g><path style="opacity:1" fill="#fefefe" d="M 142.5,500.5 C 847.167,500.5 1551.83,500.5 2256.5,500.5C 2256.5,966.5 2256.5,1432.5 2256.5,1898.5C 1551.83,1898.5 847.167,1898.5 142.5,1898.5C 142.5,1432.5 142.5,966.5 142.5,500.5 Z"/></g>
<g><path style="opacity:1" fill="#1d5b99" d="M 194.5,567.5 C 863.167,567.5 1531.83,567.5 2200.5,567.5C 2200.5,656.833 2200.5,746.167 2200.5,835.5C 1531.83,835.5 863.167,835.5 194.5,835.5C 194.5,746.167 194.5,656.833 194.5,567.5 Z"/></g>
<g><path style="opacity:1" fill="#1d5b99" d="M 1352.5,964.5 C 1421.92,960.014 1484.58,978.181 1540.5,1019C 1518.35,1045.31 1496.02,1071.48 1473.5,1097.5C 1457.97,1084.5 1440.97,1073.66 1422.5,1065C 1398.23,1055.37 1373.57,1054.04 1348.5,1061C 1323.13,1072.12 1316.63,1089.95 1329,1114.5C 1333.17,1118.67 1337.33,1122.83 1341.5,1127C 1370.17,1146.33 1398.83,1165.67 1427.5,1185C 1501.32,1243.76 1508.16,1309.59 1448,1382.5C 1415.29,1416.77 1375.12,1435.27 1327.5,1438C 1249.4,1445.11 1177.07,1428.27 1110.5,1387.5C 1129.58,1357.66 1148.92,1328 1168.5,1298.5C 1186.4,1309.95 1205.07,1320.12 1224.5,1329C 1259.7,1343.72 1295.7,1346.38 1332.5,1337C 1351.58,1327.27 1360.41,1311.77 1359,1290.5C 1356.37,1284.73 1352.87,1279.56 1348.5,1275C 1333.36,1262.59 1317.03,1251.92 1299.5,1243C 1278.04,1229.54 1257.71,1214.54 1238.5,1198C 1193.16,1154.79 1184.66,1104.95 1213,1048.5C 1231.14,1014.7 1258.31,991.197 1294.5,978C 1313.59,971.882 1332.92,967.382 1352.5,964.5 Z"/></g>
<g><path style="opacity:1" fill="#a4bcd5" d="M 851.5,974.5 C 894.002,973.169 936.669,973.169 979.5,974.5C 979.376,975.107 979.043,975.44 978.5,975.5C 936.337,974.501 894.003,974.168 851.5,974.5 Z"/></g>
<g><path style="opacity:1" fill="#86a8c9" d="M 1043.5,974.5 C 1084.34,973.169 1125.34,973.169 1166.5,974.5C 1166.38,975.107 1166.04,975.44 1165.5,975.5C 1125,974.501 1084.34,974.168 1043.5,974.5 Z"/></g>
<g><path style="opacity:1" fill="#1d5b99" d="M 851.5,974.5 C 894.003,974.168 936.337,974.501 978.5,975.5C 893.528,1125.48 808.528,1275.48 723.5,1425.5C 680.839,1426.5 638.172,1426.83 595.5,1426.5C 582.884,1306.12 569.717,1185.79 556,1065.5C 547.048,1013.37 516.214,987.038 463.5,986.5C 463.505,982.466 463.838,978.466 464.5,974.5C 533.5,974.5 602.5,974.5 671.5,974.5C 679.071,1074.06 684.737,1173.73 688.5,1273.5C 694.649,1254.53 702.482,1236.19 712,1218.5C 758.259,1136.98 804.759,1055.64 851.5,974.5 Z"/></g>
<g><path style="opacity:1" fill="#1d5b99" d="M 1043.5,974.5 C 1084.34,974.168 1125,974.501 1165.5,975.5C 1119.77,1125.7 1074.43,1276.04 1029.5,1426.5C 988.495,1426.83 947.495,1426.5 906.5,1425.5C 952.379,1275.2 998.046,1124.87 1043.5,974.5 Z"/></g>
<g><path style="opacity:1" fill="#6892bb" d="M 1724.5,975.5 C 1779,974.501 1833.66,974.168 1888.5,974.5C 1888.5,975.5 1888.5,976.5 1888.5,977.5C 1834.05,975.511 1779.38,974.844 1724.5,975.5 Z"/></g>
<g><path style="opacity:1" fill="#1d5b99" d="M 1724.5,975.5 C 1779.38,974.844 1834.05,975.511 1888.5,977.5C 1902.07,1127.14 1915.41,1276.81 1928.5,1426.5C 1887.17,1426.5 1845.83,1426.5 1804.5,1426.5C 1803.2,1404.18 1802.2,1381.85 1801.5,1359.5C 1750.16,1359.17 1698.83,1359.5 1647.5,1360.5C 1637.12,1382.59 1626.79,1404.59 1616.5,1426.5C 1572.33,1426.83 1528.33,1426.5 1484.5,1425.5C 1564.5,1275.5 1644.5,1125.5 1724.5,975.5 Z"/></g>
<g><path style="opacity:1" fill="#27609c" d="M 1964.5,989.5 C 1981.48,987.666 1992.98,994.666 1999,1010.5C 2002.14,1028.4 1995.3,1040.57 1978.5,1047C 1959.92,1049.97 1948.09,1042.47 1943,1024.5C 1941.03,1007.08 1948.2,995.416 1964.5,989.5 Z"/></g>
<g><path style="opacity:1" fill="#f5f8fa" d="M 1965.5,994.5 C 1985.6,994.433 1994.76,1004.43 1993,1024.5C 1987.81,1039.85 1977.31,1045.35 1961.5,1041C 1948.48,1031.8 1945.32,1019.97 1952,1005.5C 1955.34,1000.27 1959.84,996.602 1965.5,994.5 Z"/></g>
<g><path style="opacity:1" fill="#29619d" d="M 1960.5,1003.5 C 1966.51,1003.33 1972.51,1003.5 1978.5,1004C 1984.37,1007.02 1985.87,1011.52 1983,1017.5C 1981.27,1019.45 1979.1,1020.45 1976.5,1020.5C 1978.62,1025.39 1981.28,1030.06 1984.5,1034.5C 1982.5,1035.83 1980.5,1035.83 1978.5,1034.5C 1975.71,1030.42 1973.04,1026.25 1970.5,1022C 1968.87,1021.51 1967.2,1021.34 1965.5,1021.5C 1965.5,1026.17 1965.5,1030.83 1965.5,1035.5C 1963.83,1035.5 1962.17,1035.5 1960.5,1035.5C 1960.5,1024.83 1960.5,1014.17 1960.5,1003.5 Z"/></g>
<g><path style="opacity:1" fill="#fbfcfd" d="M 1965.5,1007.5 C 1969.91,1007.02 1974.08,1007.69 1978,1009.5C 1978.92,1012.06 1978.42,1014.23 1976.5,1016C 1972.85,1016.5 1969.18,1016.67 1965.5,1016.5C 1965.5,1013.5 1965.5,1010.5 1965.5,1007.5 Z"/></g>
<g><path style="opacity:1" fill="#fdfdfe" d="M 1787.5,1053.5 C 1788.82,1056.09 1789.48,1059.09 1789.5,1062.5C 1788.47,1079.83 1788.31,1097.16 1789,1114.5C 1791.21,1168.18 1793.71,1221.85 1796.5,1275.5C 1760.83,1275.83 1725.16,1275.5 1689.5,1274.5C 1718.49,1212.86 1746.66,1150.86 1774,1088.5C 1779.07,1077.02 1783.57,1065.36 1787.5,1053.5 Z"/></g>
<g><path style="opacity:1" fill="#e0e8f0" d="M 1484.5,1425.5 C 1528.33,1426.5 1572.33,1426.83 1616.5,1426.5C 1572.33,1427.83 1528,1427.83 1483.5,1426.5C 1483.62,1425.89 1483.96,1425.56 1484.5,1425.5 Z"/></g>
<g><path style="opacity:1" fill="#e6a83a" d="M 198.5,1567.5 C 867.167,1567.5 1535.83,1567.5 2204.5,1567.5C 2204.5,1656.83 2204.5,1746.17 2204.5,1835.5C 1535.83,1835.5 867.167,1835.5 198.5,1835.5C 198.5,1746.17 198.5,1656.83 198.5,1567.5 Z"/></g>
<g><path style="opacity:1" fill="#2f5e94" d="M 2154.5,1770.5 C 2174.73,1769.57 2186.39,1779.07 2189.5,1799C 2186.26,1822.63 2172.92,1831.96 2149.5,1827C 2134.66,1819.15 2129.16,1806.98 2133,1790.5C 2137.2,1780.46 2144.36,1773.8 2154.5,1770.5 Z"/></g>
<g><path style="opacity:1" fill="#e2a63c" d="M 2155.5,1775.5 C 2176.07,1776.25 2184.9,1786.92 2182,1807.5C 2174.85,1823.33 2163.35,1827.5 2147.5,1820C 2139.09,1812.65 2136.26,1803.49 2139,1792.5C 2142.02,1784.32 2147.52,1778.65 2155.5,1775.5 Z"/></g>
<g><path style="opacity:1" fill="#255c96" d="M 2160.5,1803.5 C 2158.74,1802.54 2156.74,1802.21 2154.5,1802.5C 2154.5,1807.17 2154.5,1811.83 2154.5,1816.5C 2152.83,1816.5 2151.17,1816.5 2149.5,1816.5C 2149.5,1805.83 2149.5,1795.17 2149.5,1784.5C 2155.51,1784.33 2161.51,1784.5 2167.5,1785C 2172.92,1787.02 2174.76,1790.85 2173,1796.5C 2171.65,1799.93 2169.15,1802.1 2165.5,1803C 2168.36,1807.03 2171.03,1811.2 2173.5,1815.5C 2171.5,1816.83 2169.5,1816.83 2167.5,1815.5C 2165.16,1811.47 2162.82,1807.47 2160.5,1803.5 Z"/></g>
<g><path style="opacity:1" fill="#a28d5a" d="M 2164.5,1789.5 C 2161.5,1789.5 2158.5,1789.5 2155.5,1789.5C 2155.5,1792.17 2155.5,1794.83 2155.5,1797.5C 2158.5,1797.5 2161.5,1797.5 2164.5,1797.5C 2161.38,1798.48 2158.04,1798.81 2154.5,1798.5C 2154.5,1795.17 2154.5,1791.83 2154.5,1788.5C 2158.04,1788.19 2161.38,1788.52 2164.5,1789.5 Z"/></g>
<g><path style="opacity:1" fill="#e3a63c" d="M 2164.5,1789.5 C 2167.95,1790.13 2169.12,1792.13 2168,1795.5C 2167.18,1796.82 2166.02,1797.49 2164.5,1797.5C 2161.5,1797.5 2158.5,1797.5 2155.5,1797.5C 2155.5,1794.83 2155.5,1792.17 2155.5,1789.5C 2158.5,1789.5 2161.5,1789.5 2164.5,1789.5 Z"/></g>
<g><path style="opacity:1" fill="#a38e5a" d="M 2160.5,1803.5 C 2158.83,1803.5 2157.17,1803.5 2155.5,1803.5C 2155.82,1808.03 2155.48,1812.37 2154.5,1816.5C 2154.5,1811.83 2154.5,1807.17 2154.5,1802.5C 2156.74,1802.21 2158.74,1802.54 2160.5,1803.5 Z"/></g>
</svg>
