<?xml version="1.0" standalone="no"?>
<!DOCTYPE svg PUBLIC "-//W3C//DTD SVG 20010904//EN"
 "http://www.w3.org/TR/2001/REC-SVG-20010904/DTD/svg10.dtd">
<svg version="1.0" xmlns="http://www.w3.org/2000/svg"
 width="2048.000000pt" height="1536.000000pt" viewBox="0 0 2048.000000 1536.000000"
 preserveAspectRatio="xMidYMid meet">

<g transform="translate(0.000000,1536.000000) scale(0.100000,-0.100000)"
fill="#000000" stroke="none">
<path d="M10838 13093 c7 -3 16 -2 19 1 4 3 -2 6 -13 5 -11 0 -14 -3 -6 -6z"/>
<path d="M10865 13080 c-3 -5 1 -10 10 -10 9 0 13 5 10 10 -3 6 -8 10 -10 10
-2 0 -7 -4 -10 -10z"/>
<path d="M10925 13071 c-3 -5 -1 -12 4 -15 5 -3 7 -15 4 -25 -3 -10 1 -29 7
-41 8 -15 8 -20 1 -16 -8 5 -11 -75 -11 -283 0 -187 -4 -291 -10 -291 -15 0
-12 -77 3 -84 10 -5 10 -7 0 -12 -7 -3 -13 -18 -13 -33 0 -23 -6 -30 -32 -39
-23 -7 -27 -10 -13 -11 15 -1 17 -3 6 -10 -15 -9 66 -8 224 4 112 8 352 -7
485 -31 525 -95 968 -351 1323 -765 86 -100 218 -304 286 -441 89 -181 141
-329 187 -533 28 -126 30 -105 4 50 -178 1051 -871 1949 -1843 2387 -150 68
-347 137 -489 173 -108 28 -115 29 -123 16z m38 -8 c-7 -2 -19 -2 -25 0 -7 3
-2 5 12 5 14 0 19 -2 13 -5z"/>
<path d="M7679 11923 c-13 -16 -12 -17 4 -4 9 7 17 15 17 17 0 8 -8 3 -21 -13z"/>
<path d="M7650 11885 c-7 -8 -9 -15 -5 -15 4 0 -12 -21 -34 -46 -39 -45 -54
-73 -29 -58 7 4 8 3 4 -5 -4 -6 -12 -9 -17 -6 -15 10 -173 -252 -253 -420
-379 -791 -411 -1740 -87 -2553 349 -872 1056 -1548 1936 -1852 345 -119 668
-172 1045 -172 223 -1 340 9 545 43 768 129 1468 540 1958 1149 343 427 561
905 662 1453 32 176 31 226 -1 82 -53 -234 -158 -498 -275 -690 -78 -130 -213
-299 -334 -421 -418 -419 -956 -644 -1544 -645 -264 0 -456 30 -691 106 -478
157 -904 491 -1177 923 -166 264 -282 580 -329 897 -24 163 -25 476 -1 635 19
128 68 338 97 415 32 86 33 92 21 75 -12 -17 -14 -10 -5 14 3 9 9 14 13 12 3
-2 14 13 23 35 9 22 13 37 7 34 -5 -3 -6 1 -3 9 3 9 9 16 13 16 14 0 30 48 25
75 -2 14 0 34 6 43 9 15 10 14 5 -5 -3 -12 -1 -25 6 -29 8 -5 10 -2 6 9 -3 8
0 18 7 20 7 3 16 17 18 31 3 14 1 23 -3 20 -5 -3 -9 -14 -9 -26 0 -17 -3 -18
-14 -9 -12 10 -17 8 -26 -9 -6 -12 -10 -26 -7 -33 3 -11 -59 -76 -74 -77 -3 0
-4 18 -3 40 l2 40 -164 0 c-103 0 -164 4 -164 10 0 6 -33 10 -80 10 l-80 0 0
30 c0 28 -2 30 -40 30 -22 0 -40 5 -40 10 0 6 -18 10 -40 10 -38 0 -40 2 -40
30 0 28 -2 30 -40 30 -22 0 -40 5 -40 10 0 6 -18 10 -40 10 -38 0 -40 2 -40
30 0 28 -2 30 -40 30 -22 0 -40 5 -40 10 0 6 -18 10 -40 10 -31 0 -40 4 -40
17 0 9 -11 31 -25 49 -14 18 -25 37 -25 42 0 5 -7 15 -15 22 -13 11 -15 8 -15
-21 0 -36 -12 -31 -34 12 -6 12 -24 30 -39 38 -15 9 -33 27 -40 41 -7 13 -21
29 -32 35 -11 5 -44 34 -74 63 l-53 52 32 0 c28 0 31 2 20 15 -7 8 -17 15 -22
15 -5 0 -25 12 -44 26 -29 23 -34 24 -34 9 0 -14 -3 -15 -15 -5 -9 8 -15 30
-15 56 0 24 -4 44 -10 44 -5 0 -10 17 -10 39 0 30 -4 40 -20 44 -14 4 -18 10
-14 24 6 16 5 16 -9 -2 -16 -21 -19 -3 -4 23 11 17 2 15 -13 -3z m-7 -65 c-3
-11 -9 -20 -14 -20 -11 0 -11 3 -3 24 9 23 23 20 17 -4z m33 -14 c2 -17 -2
-23 -10 -20 -8 3 -11 15 -8 30 5 29 14 24 18 -10z m-10 -44 c-10 -2 -22 0 -28
6 -6 6 0 7 19 4 21 -5 23 -7 9 -10z m1531 -838 c-3 -3 -12 -4 -19 -1 -8 3 -5
6 6 6 11 1 17 -2 13 -5z"/>
<path d="M7920 11535 c0 -8 7 -15 16 -15 14 0 14 3 4 15 -7 8 -14 15 -16 15
-2 0 -4 -7 -4 -15z"/>
<path d="M8000 11455 c0 -8 7 -15 16 -15 14 0 14 3 4 15 -7 8 -14 15 -16 15
-2 0 -4 -7 -4 -15z"/>
<path d="M8160 11302 c0 -12 19 -26 26 -19 2 2 -2 10 -11 17 -9 8 -15 8 -15 2z"/>
<path d="M9296 11153 c-6 -14 -5 -15 5 -6 7 7 10 15 7 18 -3 3 -9 -2 -12 -12z"/>
<path d="M9138 10953 c7 -3 16 -2 19 1 4 3 -2 6 -13 5 -11 0 -14 -3 -6 -6z"/>
<path d="M13401 10294 c0 -11 3 -14 6 -6 3 7 2 16 -1 19 -3 4 -6 -2 -5 -13z"/>
<path d="M13402 9635 c0 -16 2 -22 5 -12 2 9 2 23 0 30 -3 6 -5 -1 -5 -18z"/>
<path d="M14439 6107 c-115 -43 -185 -126 -211 -248 -40 -194 133 -383 336
-367 116 10 207 71 258 175 29 59 33 77 32 143 -1 123 -62 223 -168 277 -62
32 -188 42 -247 20z m227 -103 c30 -18 60 -48 79 -78 26 -43 30 -59 30 -120
-1 -82 -24 -136 -77 -181 -53 -45 -94 -57 -173 -53 -87 4 -141 35 -185 105
-76 119 -35 270 90 336 48 25 64 28 121 25 52 -3 77 -10 115 -34z"/>
<path d="M14450 5800 c0 -148 1 -161 18 -158 14 3 18 16 20 66 3 57 5 62 26
62 16 0 38 -19 74 -65 33 -40 60 -65 72 -65 11 0 20 2 20 5 0 3 -23 34 -50 69
l-50 64 30 30 c39 40 41 88 5 122 -21 20 -39 25 -95 28 l-70 4 0 -162z m140
101 c26 -49 -2 -91 -62 -91 l-38 0 0 55 0 55 45 0 c34 0 47 -5 55 -19z"/>
<path d="M5610 5063 c0 -1065 0 -1059 57 -1166 38 -71 137 -166 214 -205 101
-51 203 -72 343 -72 67 0 141 5 165 11 42 9 255 121 266 139 5 9 -129 317
-145 334 -5 5 -44 -2 -93 -18 -47 -14 -94 -26 -105 -26 -36 0 -72 22 -95 59
-22 36 -22 40 -22 431 l0 395 137 3 137 3 120 234 c67 128 121 236 121 239 0
3 -117 6 -260 6 l-260 0 0 305 0 305 -290 0 -290 0 0 -977z"/>
<path d="M13280 5052 c0 -1077 -1 -1046 57 -1154 41 -75 139 -162 235 -208
116 -56 215 -73 395 -68 l142 3 117 60 c64 32 118 65 121 71 3 10 -105 274
-137 335 -9 16 -14 16 -87 -7 -43 -13 -89 -24 -101 -24 -39 0 -86 28 -107 63
-19 31 -20 59 -23 975 l-2 942 -305 0 -305 0 0 -988z"/>
<path d="M7477 5415 c-184 -35 -315 -104 -447 -235 -95 -95 -154 -189 -206
-329 -45 -119 -57 -221 -51 -404 6 -174 25 -263 87 -394 104 -223 225 -333
432 -394 101 -30 359 -37 507 -15 98 15 278 69 385 115 38 17 47 25 41 39 -4
9 -34 91 -67 182 -33 91 -62 167 -64 169 -2 3 -82 -27 -177 -64 -150 -61 -182
-70 -248 -73 -67 -4 -85 0 -138 23 -80 36 -162 121 -180 187 -19 67 -12 78 51
78 76 0 250 27 337 51 150 42 303 128 382 216 101 112 146 316 103 464 -50
173 -201 316 -394 374 -77 23 -256 28 -353 10z m193 -380 c44 -23 70 -62 70
-107 0 -111 -139 -231 -324 -280 -84 -22 -116 -23 -116 -4 0 36 30 165 48 206
65 149 219 238 322 185z"/>
<path d="M8480 4525 l0 -905 300 0 300 0 0 602 0 602 46 42 c59 56 127 79 224
78 82 -1 161 -26 220 -69 19 -14 38 -25 42 -25 4 0 8 105 8 234 l0 234 -39 31
c-76 61 -125 76 -241 76 -99 0 -110 -2 -172 -33 -48 -23 -85 -52 -132 -104
l-66 -70 0 106 0 106 -245 0 -245 0 0 -905z"/>
<path d="M10239 5416 c-107 -16 -275 -55 -359 -84 l-55 -19 0 -1169 0 -1169
298 -3 297 -2 0 345 c0 190 3 345 8 345 4 0 30 -7 57 -16 79 -25 276 -30 355
-9 189 49 323 165 416 360 95 200 129 349 129 570 0 217 -25 336 -106 500
-129 264 -311 351 -749 360 -133 3 -225 0 -291 -9z m394 -410 c44 -18 114 -96
142 -159 47 -101 60 -172 60 -322 -1 -153 -12 -200 -78 -310 -67 -111 -120
-141 -240 -133 -41 3 -79 8 -85 12 -9 5 -12 125 -12 456 l0 448 28 10 c40 15
148 14 185 -2z"/>
<path d="M12318 5420 c-276 -44 -499 -202 -624 -443 -91 -177 -121 -323 -111
-541 10 -197 56 -344 160 -508 88 -139 209 -228 377 -275 54 -15 101 -18 275
-17 181 0 223 3 300 22 113 27 345 113 345 127 0 13 -127 355 -134 363 -3 3
-81 -25 -173 -63 -148 -60 -178 -68 -249 -73 -72 -4 -88 -1 -137 21 -102 47
-185 144 -190 223 -2 39 -2 39 38 41 113 8 249 27 334 49 115 29 276 106 351
168 185 154 229 443 98 649 -67 105 -211 208 -342 244 -64 17 -243 25 -318 13z
m165 -384 c74 -30 91 -127 36 -209 -58 -88 -224 -177 -361 -194 l-47 -6 5 39
c22 150 51 220 122 297 75 80 165 107 245 73z"/>
</g>
</svg>
